<svg xmlns="http://www.w3.org/2000/svg" width="24" height="24" viewBox="0 0 24 24">
  <g id="ico_daxem" transform="translate(-3 -151)">
    <path id="Path_288" data-name="Path 288" d="M68,318.588A.706.706,0,1,1,68,320a12,12,0,0,1,0-24,.706.706,0,1,1,0,1.412,10.588,10.588,0,0,0,0,21.176ZM68,308h5.647a.706.706,0,0,1,0,1.412H67.294a.706.706,0,0,1-.706-.706v-8.471a.706.706,0,1,1,1.412,0Zm2.74-10.228a.706.706,0,1,1,.864-.5A.706.706,0,0,1,70.74,297.772Zm2.554,1.058a.706.706,0,1,1,.964-.258A.706.706,0,0,1,73.294,298.83Zm2.193,1.683a.706.706,0,1,1,1,0A.706.706,0,0,1,75.487,300.513Zm1.683,2.193a.706.706,0,1,1,.964.258A.705.705,0,0,1,77.17,302.706Zm1.058,2.553a.706.706,0,1,1,.864.5A.706.706,0,0,1,78.228,305.259ZM78.588,308a.706.706,0,1,1,.706.706A.706.706,0,0,1,78.588,308Zm-.361,2.741a.706.706,0,1,1,.5.864A.706.706,0,0,1,78.228,310.741Zm-1.058,2.554a.706.706,0,1,1,.258.964A.706.706,0,0,1,77.17,313.294Zm-1.683,2.193a.706.706,0,1,1,0,1A.706.706,0,0,1,75.487,315.487Zm-2.193,1.683a.706.706,0,1,1-.258.964A.705.705,0,0,1,73.294,317.17Zm-2.554,1.058a.706.706,0,1,1-.5.864A.706.706,0,0,1,70.74,318.228Z" transform="translate(-53 -145)" fill="#fff"/>
  </g>
</svg>
